<svg xmlns="http://www.w3.org/2000/svg">

    <symbol id="arrow-back" viewBox="0 0 16 16" preserveAspectRatio="xMidYMid meet">
        <title>Voltar</title>
        <path d="M16,7H3.8l5.6-5.6L8,0L0,8l8,8l1.4-1.4L3.8,9H16V7z"/>
    </symbol>

    <symbol id="more-vertical" viewBox="0 0 16 16" preserveAspectRatio="xMidYMid meet">
        <title>Voltar</title>
        <path d="M2,4c1.1,0,2-0.9,2-2S3.1,0,2,0C0.9,0,0,0.9,0,2S0.9,4,2,4z M2,6C0.9,6,0,6.9,0,8s0.9,2,2,2c1.1,0,2-0.9,2-2S3.1,6,2,6z M2,12c-1.1,0-2,0.9-2,2s0.9,2,2,2c1.1,0,2-0.9,2-2S3.1,12,2,12z"/>
    </symbol>

</svg>
